<svg xmlns="http://www.w3.org/2000/svg" xmlns:xlink="http://www.w3.org/1999/xlink" width="500" zoomAndPan="magnify" viewBox="0 0 375 374.999991" height="500" preserveAspectRatio="xMidYMid meet" version="1.0"><path fill="#000000" d="M 130.511719 62.503906 L 189.742188 62.503906 C 177.578125 122.167969 177.578125 122.167969 172.191406 148.058594 L 173.929688 146.519531 C 184.988281 136.765625 196.054688 129.015625 210.71875 125.78125 C 222.496094 124.007812 235.515625 123.710938 246.996094 127.109375 C 256.882812 130.996094 265.929688 136.917969 273.105469 144.769531 C 282.34375 156.863281 287.132812 170.449219 289.558594 185.355469 C 290.003906 190.710938 290.082031 196.019531 290.039062 201.394531 L 290.007812 205.742188 C 289.601562 229.246094 283.429688 251.667969 271.804688 272.160156 C 268.597656 277.207031 264.9375 281.742188 261.039062 286.265625 L 259.238281 288.546875 C 251.421875 298.183594 240.757812 305.835938 229.230469 310.398438 C 212.335938 316.390625 196.003906 318.753906 178.089844 316.472656 C 168.507812 314.308594 158.722656 310.242188 151.417969 303.542969 C 147.914062 299.738281 145.855469 295.425781 143.828125 290.699219 L 142.574219 288.460938 L 139.285156 287.363281 L 138.882812 290.136719 L 138.324219 293.875 L 137.785156 297.539062 C 136.988281 302.222656 135.925781 306.855469 134.898438 311.496094 L 78.957031 311.496094 C 81.425781 296.6875 81.425781 296.6875 82.617188 290.914062 L 83.433594 286.953125 L 84.300781 282.773438 L 85.222656 278.296875 C 86.046875 274.308594 86.871094 270.320312 87.695312 266.335938 C 88.570312 262.125 89.441406 257.910156 90.308594 253.695312 C 91.886719 246.058594 93.46875 238.421875 95.046875 230.785156 C 96.332031 224.582031 97.617188 218.375 98.898438 212.167969 C 104.757812 183.828125 110.679688 155.503906 116.664062 127.191406 C 117.203125 124.660156 117.738281 122.125 118.269531 119.589844 C 119.578125 113.386719 120.890625 107.183594 122.203125 100.980469 C 124.921875 88.144531 127.722656 75.328125 130.511719 62.503906 M 178.085938 176.238281 C 170.175781 181.851562 164.941406 188.867188 160.507812 197.441406 C 154.222656 211.339844 151.1875 227.15625 152.449219 242.390625 C 153.632812 250.304688 155.789062 256.949219 160.585938 263.410156 C 163.167969 266.410156 165.308594 268.085938 168.902344 269.8125 C 175.71875 272.144531 182.3125 273.855469 189.503906 272.632812 C 197.898438 270.472656 205.398438 267.101562 211.679688 261.039062 C 221.550781 249.839844 227.179688 236.035156 230.324219 221.550781 C 232.296875 211.679688 232.785156 200.042969 230.1875 190.222656 C 227.828125 183.683594 223.800781 178.714844 218.808594 173.972656 C 214.554688 171.210938 210.640625 170.09375 205.589844 169.667969 C 194.851562 169.632812 187.234375 170.601562 178.085938 176.238281 " fill-opacity="1" fill-rule="nonzero"/><path fill="#000000" d="M 254.457031 62.503906 C 257.085938 62.640625 257.085938 62.640625 259.941406 63.601562 C 262.105469 65.734375 262.105469 65.734375 264.164062 68.515625 L 266.449219 71.5625 L 268.785156 74.777344 C 269.5625 75.8125 270.335938 76.851562 271.136719 77.921875 C 273.273438 80.8125 275.394531 83.714844 277.492188 86.636719 C 278.007812 87.3125 278.519531 87.992188 279.050781 88.691406 C 280.300781 90.394531 280.300781 90.394531 281.878906 93.214844 C 281.679688 95.367188 281.679688 95.367188 280.78125 97.605469 C 279.019531 99.390625 279.019531 99.390625 276.742188 101.121094 L 274.21875 103.0625 L 271.527344 105.078125 L 268.8125 107.140625 C 266.230469 109.09375 263.640625 111.035156 261.039062 112.960938 L 259.066406 114.421875 C 252.894531 118.960938 252.894531 118.960938 250.070312 120.636719 L 247.875 120.636719 C 246.355469 118.917969 246.355469 118.917969 244.609375 116.503906 L 242.664062 113.835938 L 240.609375 110.972656 L 238.523438 108.101562 C 236.515625 105.335938 234.519531 102.566406 232.519531 99.796875 C 231.53125 98.441406 230.542969 97.082031 229.554688 95.726562 C 227.613281 93.066406 225.675781 90.402344 223.746094 87.730469 C 227.664062 82.011719 232.921875 78.476562 238.484375 74.5 L 244.03125 70.488281 L 246.660156 68.609375 C 249.164062 66.804688 249.164062 66.804688 252.027344 64.152344 Z M 254.457031 62.503906 " fill-opacity="1" fill-rule="nonzero"/></svg>