<svg xmlns="http://www.w3.org/2000/svg" xmlns:xlink="http://www.w3.org/1999/xlink" width="500" zoomAndPan="magnify" viewBox="0 0 375 374.999991" height="500" preserveAspectRatio="xMidYMid meet" version="1.0"><path fill="#000000" d="M 243.238281 120.734375 C 249.261719 133.296875 252.640625 147.351562 252.640625 162.210938 C 252.640625 215.234375 209.65625 258.222656 156.628906 258.222656 C 148.375 258.222656 140.363281 257.175781 132.710938 255.21875 C 148.1875 287.480469 181.152344 309.753906 219.316406 309.753906 C 272.34375 309.753906 315.328125 266.765625 315.328125 213.742188 C 315.328125 168.972656 284.699219 131.359375 243.238281 120.734375 Z M 243.238281 120.734375 " fill-opacity="1" fill-rule="nonzero"/><path fill="#ffce00" d="M 252.660156 162.210938 C 252.660156 163.78125 252.621094 165.351562 252.542969 166.921875 C 252.464844 168.492188 252.351562 170.058594 252.195312 171.621094 C 252.042969 173.1875 251.851562 174.746094 251.621094 176.300781 C 251.390625 177.851562 251.121094 179.402344 250.816406 180.941406 C 250.507812 182.484375 250.164062 184.015625 249.78125 185.539062 C 249.398438 187.0625 248.980469 188.578125 248.523438 190.082031 C 248.070312 191.585938 247.578125 193.078125 247.046875 194.554688 C 246.519531 196.035156 245.953125 197.5 245.351562 198.953125 C 244.75 200.402344 244.113281 201.839844 243.441406 203.261719 C 242.769531 204.679688 242.0625 206.085938 241.324219 207.46875 C 240.582031 208.855469 239.808594 210.222656 239 211.570312 C 238.191406 212.917969 237.351562 214.246094 236.480469 215.550781 C 235.605469 216.859375 234.699219 218.140625 233.765625 219.402344 C 232.828125 220.667969 231.863281 221.90625 230.867188 223.121094 C 229.867188 224.332031 228.84375 225.523438 227.789062 226.6875 C 226.734375 227.851562 225.648438 228.988281 224.539062 230.101562 C 223.425781 231.210938 222.289062 232.292969 221.125 233.351562 C 219.960938 234.40625 218.773438 235.429688 217.558594 236.429688 C 216.34375 237.425781 215.105469 238.390625 213.84375 239.328125 C 212.578125 240.261719 211.296875 241.167969 209.988281 242.039062 C 208.683594 242.914062 207.355469 243.753906 206.007812 244.5625 C 204.660156 245.371094 203.292969 246.144531 201.90625 246.882812 C 200.523438 247.625 199.117188 248.332031 197.699219 249.003906 C 196.277344 249.675781 194.839844 250.3125 193.390625 250.914062 C 191.9375 251.515625 190.472656 252.078125 188.992188 252.609375 C 187.515625 253.136719 186.023438 253.628906 184.519531 254.085938 C 183.015625 254.542969 181.5 254.960938 179.976562 255.34375 C 178.453125 255.726562 176.917969 256.070312 175.378906 256.375 C 173.835938 256.683594 172.289062 256.953125 170.734375 257.183594 C 169.179688 257.414062 167.621094 257.605469 166.058594 257.757812 C 164.496094 257.914062 162.929688 258.027344 161.359375 258.105469 C 159.789062 258.183594 158.21875 258.222656 156.648438 258.222656 C 155.078125 258.222656 153.507812 258.183594 151.9375 258.105469 C 150.367188 258.027344 148.800781 257.914062 147.238281 257.757812 C 145.671875 257.605469 144.113281 257.414062 142.558594 257.183594 C 141.003906 256.953125 139.457031 256.683594 137.917969 256.375 C 136.375 256.070312 134.84375 255.726562 133.320312 255.34375 C 131.792969 254.960938 130.28125 254.542969 128.777344 254.085938 C 127.273438 253.628906 125.78125 253.136719 124.300781 252.609375 C 122.824219 252.078125 121.359375 251.515625 119.90625 250.914062 C 118.453125 250.3125 117.019531 249.675781 115.597656 249.003906 C 114.175781 248.332031 112.773438 247.625 111.386719 246.882812 C 110.003906 246.144531 108.636719 245.371094 107.289062 244.5625 C 105.941406 243.753906 104.613281 242.914062 103.308594 242.039062 C 102 241.167969 100.714844 240.261719 99.453125 239.328125 C 98.191406 238.390625 96.953125 237.425781 95.738281 236.429688 C 94.523438 235.429688 93.335938 234.40625 92.171875 233.351562 C 91.007812 232.292969 89.867188 231.210938 88.757812 230.101562 C 87.644531 228.988281 86.5625 227.851562 85.507812 226.6875 C 84.453125 225.523438 83.425781 224.332031 82.429688 223.121094 C 81.433594 221.90625 80.464844 220.667969 79.53125 219.402344 C 78.59375 218.140625 77.691406 216.859375 76.816406 215.550781 C 75.945312 214.246094 75.105469 212.917969 74.296875 211.570312 C 73.488281 210.222656 72.714844 208.855469 71.972656 207.46875 C 71.234375 206.085938 70.527344 204.679688 69.855469 203.261719 C 69.183594 201.839844 68.546875 200.402344 67.945312 198.953125 C 67.34375 197.5 66.777344 196.035156 66.25 194.554688 C 65.71875 193.078125 65.226562 191.585938 64.769531 190.082031 C 64.3125 188.578125 63.894531 187.0625 63.511719 185.539062 C 63.132812 184.015625 62.789062 182.484375 62.480469 180.941406 C 62.175781 179.402344 61.90625 177.851562 61.675781 176.300781 C 61.445312 174.746094 61.253906 173.1875 61.097656 171.621094 C 60.945312 170.058594 60.828125 168.492188 60.75 166.921875 C 60.675781 165.351562 60.636719 163.78125 60.636719 162.210938 C 60.636719 160.640625 60.675781 159.070312 60.75 157.5 C 60.828125 155.929688 60.945312 154.363281 61.097656 152.800781 C 61.253906 151.238281 61.445312 149.679688 61.675781 148.125 C 61.90625 146.570312 62.175781 145.023438 62.480469 143.480469 C 62.789062 141.941406 63.132812 140.40625 63.511719 138.882812 C 63.894531 137.359375 64.3125 135.84375 64.769531 134.339844 C 65.226562 132.835938 65.71875 131.347656 66.25 129.867188 C 66.777344 128.386719 67.34375 126.921875 67.945312 125.46875 C 68.546875 124.019531 69.183594 122.582031 69.855469 121.160156 C 70.527344 119.742188 71.234375 118.339844 71.972656 116.953125 C 72.714844 115.566406 73.488281 114.199219 74.296875 112.851562 C 75.105469 111.503906 75.945312 110.175781 76.816406 108.871094 C 77.691406 107.566406 78.59375 106.28125 79.53125 105.019531 C 80.464844 103.757812 81.433594 102.519531 82.429688 101.304688 C 83.425781 100.089844 84.453125 98.898438 85.507812 97.734375 C 86.5625 96.570312 87.644531 95.433594 88.757812 94.324219 C 89.867188 93.210938 91.007812 92.128906 92.171875 91.074219 C 93.335938 90.019531 94.523438 88.992188 95.738281 87.996094 C 96.953125 87 98.191406 86.03125 99.453125 85.09375 C 100.714844 84.160156 102 83.253906 103.308594 82.382812 C 104.613281 81.507812 105.941406 80.667969 107.289062 79.859375 C 108.636719 79.054688 110.003906 78.277344 111.386719 77.539062 C 112.773438 76.796875 114.175781 76.089844 115.597656 75.417969 C 117.019531 74.746094 118.453125 74.109375 119.90625 73.511719 C 121.359375 72.910156 122.824219 72.34375 124.300781 71.8125 C 125.78125 71.285156 127.273438 70.792969 128.777344 70.335938 C 130.28125 69.878906 131.792969 69.460938 133.320312 69.078125 C 134.84375 68.695312 136.375 68.351562 137.917969 68.046875 C 139.457031 67.738281 141.003906 67.472656 142.558594 67.242188 C 144.113281 67.011719 145.671875 66.816406 147.238281 66.664062 C 148.800781 66.511719 150.367188 66.394531 151.9375 66.316406 C 153.507812 66.242188 155.078125 66.203125 156.648438 66.203125 C 158.21875 66.203125 159.789062 66.242188 161.359375 66.316406 C 162.929688 66.394531 164.496094 66.511719 166.058594 66.664062 C 167.621094 66.816406 169.179688 67.011719 170.734375 67.242188 C 172.289062 67.472656 173.835938 67.738281 175.378906 68.046875 C 176.917969 68.351562 178.453125 68.695312 179.976562 69.078125 C 181.5 69.460938 183.015625 69.878906 184.519531 70.335938 C 186.023438 70.792969 187.515625 71.285156 188.992188 71.8125 C 190.472656 72.34375 191.9375 72.910156 193.390625 73.511719 C 194.839844 74.109375 196.277344 74.746094 197.699219 75.417969 C 199.117188 76.089844 200.523438 76.796875 201.90625 77.539062 C 203.292969 78.277344 204.660156 79.054688 206.007812 79.859375 C 207.355469 80.667969 208.683594 81.507812 209.988281 82.382812 C 211.296875 83.253906 212.578125 84.160156 213.84375 85.09375 C 215.105469 86.03125 216.34375 87 217.558594 87.996094 C 218.773438 88.992188 219.960938 90.019531 221.125 91.074219 C 222.289062 92.128906 223.425781 93.210938 224.539062 94.324219 C 225.648438 95.433594 226.734375 96.570312 227.789062 97.734375 C 228.84375 98.898438 229.867188 100.089844 230.867188 101.304688 C 231.863281 102.519531 232.828125 103.757812 233.765625 105.019531 C 234.699219 106.28125 235.605469 107.566406 236.480469 108.871094 C 237.351562 110.175781 238.191406 111.503906 239 112.851562 C 239.808594 114.199219 240.582031 115.566406 241.324219 116.953125 C 242.0625 118.339844 242.769531 119.742188 243.441406 121.160156 C 244.113281 122.582031 244.75 124.019531 245.351562 125.46875 C 245.953125 126.921875 246.519531 128.386719 247.046875 129.867188 C 247.578125 131.347656 248.070312 132.835938 248.523438 134.339844 C 248.980469 135.84375 249.398438 137.359375 249.78125 138.882812 C 250.164062 140.40625 250.507812 141.941406 250.816406 143.480469 C 251.121094 145.023438 251.390625 146.570312 251.621094 148.125 C 251.851562 149.679688 252.042969 151.238281 252.195312 152.800781 C 252.351562 154.363281 252.464844 155.929688 252.542969 157.5 C 252.621094 159.070312 252.660156 160.640625 252.660156 162.210938 Z M 252.660156 162.210938 " fill-opacity="1" fill-rule="nonzero"/></svg>