<svg xmlns="http://www.w3.org/2000/svg" xmlns:xlink="http://www.w3.org/1999/xlink" width="500" zoomAndPan="magnify" viewBox="0 0 375 374.999991" height="500" preserveAspectRatio="xMidYMid meet" version="1.0"><path fill="#1e1d1c" d="M 255.550781 155.355469 C 257.074219 155.261719 258.589844 155.195312 260.117188 155.15625 L 261.570312 155.109375 C 266.019531 154.984375 270.464844 154.90625 274.914062 154.847656 C 277.902344 154.808594 280.890625 154.742188 283.875 154.644531 C 286.761719 154.550781 289.652344 154.496094 292.539062 154.476562 C 293.636719 154.464844 294.734375 154.433594 295.832031 154.382812 C 302.800781 154.097656 302.800781 154.097656 305.816406 155.355469 C 308.472656 157.488281 310.160156 160.355469 311.765625 163.316406 C 312.546875 164.753906 313.402344 166.082031 314.363281 167.40625 L 315.367188 167.910156 C 315.484375 167.648438 315.601562 167.386719 315.71875 167.121094 C 316.605469 165.472656 317.695312 163.988281 318.792969 162.480469 L 319.441406 161.582031 C 319.851562 161.015625 320.257812 160.449219 320.667969 159.882812 C 321.410156 158.929688 321.410156 158.929688 321.808594 157.988281 C 322.410156 156.859375 322.914062 156.160156 323.914062 155.355469 C 326.121094 154.855469 328.285156 154.945312 330.539062 155.011719 L 332.488281 155.027344 C 334.191406 155.039062 335.898438 155.074219 337.601562 155.113281 C 339.34375 155.148438 341.085938 155.167969 342.828125 155.183594 C 346.242188 155.222656 349.65625 155.28125 353.070312 155.355469 C 352.269531 157.460938 351.230469 159.167969 349.898438 160.972656 L 349.230469 161.890625 C 348.753906 162.546875 348.273438 163.203125 347.796875 163.859375 C 346.75 165.289062 345.714844 166.726562 344.679688 168.160156 C 342.421875 171.289062 340.15625 174.414062 337.894531 177.535156 C 337.070312 178.675781 336.25 179.816406 335.429688 180.957031 C 334.550781 182.175781 333.660156 183.386719 332.757812 184.585938 L 331.769531 185.925781 L 330.941406 187.019531 L 330.449219 187.996094 C 330.683594 189.574219 331.261719 190.589844 332.199219 191.859375 L 332.988281 192.9375 L 333.84375 194.085938 L 335.640625 196.539062 L 336.574219 197.800781 C 337.976562 199.714844 339.367188 201.640625 340.753906 203.566406 L 342.371094 205.800781 L 343.183594 206.925781 C 344.355469 208.546875 345.53125 210.167969 346.707031 211.785156 C 347.265625 212.558594 347.828125 213.332031 348.386719 214.105469 C 349.113281 215.109375 349.835938 216.113281 350.554688 217.125 L 351.1875 217.996094 C 351.675781 218.691406 352.125 219.410156 352.566406 220.136719 L 352.566406 221.644531 C 347.871094 222.433594 343.125 222.390625 338.375 222.410156 C 337.222656 222.421875 336.066406 222.449219 334.914062 222.492188 C 327.238281 222.765625 327.238281 222.765625 323.914062 221.644531 C 321.375 219.863281 319.871094 217.335938 318.449219 214.636719 C 317.558594 213.019531 316.46875 211.574219 315.367188 210.09375 C 314.199219 210.582031 313.441406 211 312.597656 211.960938 L 311.894531 212.992188 L 311.109375 214.121094 L 310.308594 215.304688 L 308.722656 217.605469 L 308.019531 218.636719 L 307.324219 219.632812 L 306.667969 220.683594 L 305.816406 221.644531 C 304.792969 221.902344 304.792969 221.902344 303.597656 221.917969 L 302.226562 221.945312 L 300.730469 221.949219 L 299.15625 221.972656 C 297.449219 222 295.742188 222.007812 294.035156 222.019531 C 292.859375 222.03125 291.679688 222.046875 290.503906 222.0625 C 287.488281 222.097656 284.46875 222.121094 281.449219 222.136719 C 279.738281 222.144531 278.023438 222.15625 276.308594 222.167969 C 273.242188 222.1875 270.175781 222.199219 267.109375 222.207031 L 265.671875 222.210938 C 264.339844 222.214844 263.007812 222.214844 261.675781 222.210938 L 260.492188 222.214844 C 256.949219 222.199219 256.949219 222.199219 255.550781 221.644531 C 254.910156 220.371094 254.984375 219.488281 254.984375 218.0625 L 254.976562 216.40625 L 254.980469 214.585938 L 254.980469 212.671875 C 254.976562 210.9375 254.976562 209.207031 254.980469 207.472656 C 254.980469 205.660156 254.980469 203.847656 254.980469 202.039062 C 254.976562 198.996094 254.980469 195.953125 254.980469 192.914062 C 254.984375 189.390625 254.984375 185.871094 254.980469 182.351562 C 254.976562 179.332031 254.976562 176.3125 254.980469 173.292969 C 254.980469 171.488281 254.980469 169.683594 254.976562 167.878906 C 254.976562 165.867188 254.980469 163.855469 254.980469 161.847656 L 254.976562 160.019531 L 254.984375 158.371094 L 254.984375 156.929688 L 255.046875 155.859375 Z M 275.65625 156.359375 C 275.644531 164.589844 275.636719 172.824219 275.628906 181.058594 C 275.628906 184.878906 275.625 188.703125 275.617188 192.523438 C 275.613281 195.855469 275.609375 199.1875 275.609375 202.515625 C 275.609375 204.28125 275.605469 206.046875 275.605469 207.808594 C 275.597656 209.777344 275.597656 211.746094 275.597656 213.710938 L 275.59375 215.492188 L 275.597656 217.109375 L 275.59375 218.523438 C 275.582031 219.65625 275.582031 219.65625 276.160156 220.636719 L 277.667969 220.136719 C 278.429688 219.179688 279.152344 218.199219 279.835938 217.1875 C 280.285156 216.539062 280.734375 215.894531 281.1875 215.25 L 281.921875 214.199219 C 283.289062 212.265625 284.707031 210.363281 286.117188 208.460938 C 289.050781 204.503906 291.949219 200.527344 294.820312 196.527344 C 295.6875 195.3125 296.578125 194.113281 297.492188 192.933594 L 298.496094 191.605469 L 299.34375 190.53125 L 299.785156 189.503906 C 299.253906 186.988281 297.363281 184.910156 295.859375 182.882812 L 294.074219 180.441406 L 293.152344 179.1875 C 291.75 177.277344 290.363281 175.355469 288.976562 173.433594 L 287.359375 171.195312 C 286.21875 169.617188 285.078125 168.039062 283.933594 166.460938 L 283.050781 165.238281 L 281.386719 162.9375 L 280.621094 161.878906 L 279.886719 160.867188 C 279.40625 160.195312 278.929688 159.519531 278.464844 158.835938 C 277.886719 157.992188 277.277344 157.175781 276.660156 156.359375 Z M 209.804688 155.355469 L 247.507812 155.355469 C 248.335938 171.121094 248.335938 171.121094 247.507812 174.4375 L 230.414062 174.4375 L 230.414062 181.46875 L 245.496094 181.46875 L 245.496094 198.542969 L 230.917969 199.042969 L 230.414062 221.644531 L 222.65625 221.925781 C 221.855469 221.957031 221.058594 221.988281 220.234375 222.019531 L 218.289062 222.082031 L 216.320312 222.15625 C 214.140625 222.144531 211.96875 221.882812 209.804688 221.644531 Z M 209.804688 155.355469 " fill-opacity="1" fill-rule="nonzero"/><path fill="#febb01" d="M 59.429688 154.1875 C 63.789062 156.019531 67.578125 158.707031 70.5625 162.386719 C 73.929688 167.121094 75.578125 172.273438 76.59375 177.953125 C 77.199219 186.449219 76.691406 194.570312 72.949219 202.308594 C 70.90625 206.101562 68.472656 209.148438 65.003906 211.726562 C 60.382812 214.5625 55.214844 215.902344 49.839844 216.132812 C 44.035156 216.242188 38.964844 214.898438 33.867188 212.101562 C 32.003906 210.746094 30.40625 209.265625 28.839844 207.582031 L 27.96875 206.644531 C 24.78125 202.8125 22.890625 197.808594 21.992188 192.945312 C 20.964844 185.148438 20.9375 176.324219 23.8125 168.914062 C 25.765625 164.292969 28.71875 160.386719 32.714844 157.328125 C 40.480469 152.152344 50.601562 151.257812 59.429688 154.1875 M 40.839844 163.535156 C 37.761719 165.71875 35.347656 168.210938 33.742188 171.644531 C 31.488281 177.222656 30.960938 183.09375 31.667969 189.0625 C 32.445312 193.621094 33.832031 197.84375 36.601562 201.585938 C 38.566406 203.898438 40.632812 205.335938 43.449219 206.453125 C 46.433594 207.359375 49.382812 207.410156 52.464844 207.078125 C 55.234375 206.425781 57.449219 205.242188 59.660156 203.46875 C 62.898438 200.398438 64.277344 196.628906 65.636719 192.464844 C 67.214844 186.746094 66.917969 180.769531 65.519531 175.050781 C 64.433594 171.429688 62.957031 168.71875 60.351562 165.964844 C 58.042969 163.792969 55.789062 162.457031 52.78125 161.507812 C 48.433594 161.09375 44.660156 161.226562 40.839844 163.535156 M 181.574219 171.410156 C 185.320312 173.191406 188.246094 176.160156 190.703125 179.460938 C 191.53125 180.925781 192.175781 182.386719 192.714844 183.980469 L 193.257812 185.574219 C 194.449219 190.515625 194.28125 196.304688 192.871094 201.179688 C 191.953125 203.710938 190.789062 205.917969 189.195312 208.085938 L 188.347656 209.402344 C 185.984375 211.828125 182.957031 213.4375 179.769531 214.550781 C 176.039062 215.523438 172.210938 215.558594 168.445312 214.765625 C 165.164062 213.777344 162.550781 212.421875 160.039062 210.09375 L 159.101562 209.234375 C 156.125 206.203125 154.75 202.410156 153.699219 198.347656 C 152.933594 193.140625 153.105469 187.402344 155.011719 182.472656 C 155.898438 180.707031 156.90625 179.078125 158.03125 177.453125 L 158.941406 176.070312 C 161.179688 173.769531 163.828125 172.066406 166.859375 170.984375 C 171.464844 169.777344 177.078125 169.789062 181.574219 171.410156 M 167.582031 180.964844 C 165.792969 182.753906 164.632812 184.488281 163.84375 186.863281 C 162.804688 191.007812 162.90625 194.9375 164.0625 199.042969 C 164.84375 201.238281 165.792969 202.953125 167.550781 204.507812 C 168.957031 205.480469 169.957031 206.148438 171.601562 206.578125 C 173.839844 206.757812 175.289062 206.675781 177.445312 206.042969 C 179.535156 204.84375 180.839844 203.5625 182.15625 201.554688 C 183.707031 198.4375 184.339844 195.128906 184.273438 191.648438 C 183.972656 188.417969 183.144531 185.429688 181.277344 182.753906 C 180.054688 181.296875 178.839844 180.121094 177.125 179.273438 C 173.523438 178.140625 170.542969 178.761719 167.582031 180.964844 M 83.632812 170.421875 L 93.6875 170.421875 L 93.714844 173.277344 C 93.75 176.398438 93.789062 179.519531 93.832031 182.640625 C 93.855469 184.53125 93.878906 186.421875 93.898438 188.3125 C 93.917969 190.140625 93.941406 191.96875 93.964844 193.792969 C 93.976562 194.488281 93.984375 195.183594 93.988281 195.878906 C 93.996094 196.859375 94.011719 197.835938 94.027344 198.8125 L 94.046875 200.496094 C 94.199219 202.152344 94.609375 203.519531 95.195312 205.070312 C 99.058594 205.683594 99.058594 205.683594 102.859375 205.039062 C 104.933594 204.105469 106.785156 202.785156 108.265625 201.054688 C 109.144531 199.207031 109.402344 197.714844 109.429688 195.675781 L 109.460938 193.96875 L 109.476562 192.144531 L 109.507812 190.265625 C 109.53125 188.621094 109.550781 186.976562 109.570312 185.335938 C 109.589844 183.652344 109.617188 181.972656 109.640625 180.292969 C 109.691406 177.003906 109.734375 173.710938 109.773438 170.421875 L 119.824219 170.421875 L 119.824219 213.609375 L 109.773438 213.609375 L 109.773438 211.097656 L 108.757812 211.609375 C 104.511719 213.664062 100.628906 214.8125 95.886719 214.550781 C 93.21875 214.210938 90.925781 213.574219 88.660156 212.101562 C 86.9375 210.652344 85.617188 209.222656 84.742188 207.125 C 83.421875 203.242188 83.4375 199.496094 83.484375 195.429688 C 83.488281 194.707031 83.492188 193.984375 83.492188 193.257812 C 83.496094 191.367188 83.511719 189.476562 83.527344 187.585938 C 83.542969 185.652344 83.550781 183.714844 83.558594 181.777344 C 83.574219 177.992188 83.601562 174.207031 83.632812 170.421875 M 147.976562 170.421875 L 149.988281 171.425781 L 149.988281 180.964844 L 146.46875 179.960938 C 144.566406 179.796875 143.347656 179.785156 141.597656 180.558594 C 140.292969 181.582031 139.375 182.621094 138.425781 183.980469 C 137.90625 185.535156 137.847656 186.644531 137.828125 188.277344 L 137.800781 190.007812 L 137.78125 191.878906 L 137.753906 193.792969 C 137.71875 196.160156 137.6875 198.527344 137.65625 200.894531 C 137.628906 203.214844 137.59375 205.53125 137.5625 207.851562 L 137.539062 209.726562 L 137.515625 211.449219 L 137.496094 212.972656 L 137.417969 214.109375 L 136.917969 214.613281 C 136.25 214.660156 135.578125 214.675781 134.90625 214.679688 L 133.679688 214.679688 L 132.394531 214.675781 L 131.105469 214.679688 L 129.878906 214.679688 L 128.75 214.675781 L 127.867188 214.613281 L 127.367188 214.109375 C 127.316406 212.765625 127.300781 211.433594 127.308594 210.089844 L 127.308594 208.8125 C 127.308594 207.414062 127.3125 206.011719 127.316406 204.613281 L 127.320312 201.710938 C 127.320312 199.160156 127.324219 196.609375 127.332031 194.054688 C 127.335938 191.453125 127.339844 188.851562 127.339844 186.25 C 127.347656 181.140625 127.355469 176.03125 127.367188 170.921875 L 136.917969 170.921875 L 137.417969 172.429688 L 138.324219 171.992188 C 141.558594 170.542969 144.429688 169.933594 147.976562 170.421875 " fill-opacity="1" fill-rule="nonzero"/></svg>