<svg xmlns="http://www.w3.org/2000/svg" xmlns:xlink="http://www.w3.org/1999/xlink" width="500" zoomAndPan="magnify" viewBox="0 0 375 374.999991" height="500" preserveAspectRatio="xMidYMid meet" version="1.0"><path fill="#aaaaaa" d="M 321.589844 133.5 L 251.617188 133.5 L 210.050781 231.175781 C 207.320312 237.589844 201.042969 241.742188 194.097656 241.742188 L 122.914062 241.742188 L 99.421875 296.941406 C 97.039062 302.546875 101.1875 308.734375 107.308594 308.734375 L 248.449219 308.734375 C 255.394531 308.734375 261.675781 304.582031 264.402344 298.167969 L 329.460938 145.277344 C 331.859375 139.703125 327.714844 133.5 321.589844 133.5 Z M 321.589844 133.5 " fill-opacity="1" fill-rule="nonzero"/><path fill="#005eb8" d="M 110.074219 77.128906 L 45.050781 229.933594 C 42.671875 235.539062 46.816406 241.726562 52.9375 241.726562 L 194.078125 241.726562 C 201.023438 241.726562 207.304688 237.570312 210.03125 231.160156 L 275.09375 78.265625 C 277.472656 72.660156 273.324219 66.472656 267.203125 66.472656 L 126.132812 66.472656 C 119.136719 66.492188 112.820312 70.679688 110.074219 77.128906 Z M 110.074219 77.128906 " fill-opacity="1" fill-rule="nonzero"/></svg>