<svg xmlns="http://www.w3.org/2000/svg" xmlns:xlink="http://www.w3.org/1999/xlink" width="500" zoomAndPan="magnify" viewBox="0 0 375 374.999991" height="500" preserveAspectRatio="xMidYMid meet" version="1.0"><path fill="#ffeb00" d="M 269.859375 297.25 L 65.609375 297.25 C 50.132812 297.25 38.449219 283.109375 41.421875 267.839844 L 73.191406 104.476562 C 76.164062 89.003906 89.691406 77.832031 105.476562 77.832031 L 309.726562 77.832031 C 325.203125 77.832031 336.886719 91.976562 333.914062 107.246094 L 302.144531 270.605469 C 299.171875 286.082031 285.644531 297.25 269.859375 297.25 Z M 269.859375 297.25 " fill-opacity="1" fill-rule="nonzero"/><path fill="#000000" d="M 265.65625 250.109375 L 231.941406 152.132812 C 230.300781 147.417969 224.253906 146.1875 221.078125 149.878906 L 203.144531 171.09375 L 219.644531 219.054688 C 221.078125 223.15625 218.105469 227.355469 213.800781 227.355469 L 155.589844 227.355469 L 137.449219 248.777344 C 134.273438 252.566406 137.039062 258.308594 142.0625 258.308594 L 259.816406 258.308594 C 264.121094 258.410156 267.09375 254.207031 265.65625 250.109375 Z M 265.65625 250.109375 " fill-opacity="1" fill-rule="nonzero"/><path fill="#ffffff" d="M 185.925781 121.183594 L 219.644531 219.160156 C 221.078125 223.257812 218.105469 227.460938 213.800781 227.460938 L 96.046875 227.460938 C 91.128906 227.460938 88.359375 221.617188 91.433594 217.929688 L 175.0625 119.03125 C 178.238281 115.238281 184.386719 116.46875 185.925781 121.183594 Z M 185.925781 121.183594 " fill-opacity="1" fill-rule="nonzero"/></svg>