<svg width="500" height="500" viewBox="0 0 500 500" fill="none" xmlns="http://www.w3.org/2000/svg">
<rect width="500" height="500" fill="white"/>
<path d="M73.5 253L257 111H265L257 117.455M73.5 253H89L257 117.455M73.5 253L80.9667 341.2C81.2924 345.048 83.8043 348.364 87.4198 349.72L101.74 355.09C104.153 355.995 106.822 355.933 109.191 354.918L116 352M116 352L238 375M116 352L286.5 192.5M238 375L247.937 382.452C249.29 383.468 250.879 384.123 252.555 384.356L271.5 387M238 375L271.5 339.5M271.5 387L417.606 215.805C419.151 213.994 420 211.693 420 209.313V143.93C420 139.762 417.414 136.03 413.511 134.567L408 132.5L342 200.969M271.5 387V339.5M257 117.455V180.567C257 183.955 258.716 187.113 261.558 188.957L270.702 194.888C273.675 196.816 277.446 197.027 280.616 195.442L286.5 192.5M286.5 192.5L300.185 197.518C301.057 197.838 301.97 198.034 302.897 198.102L342 200.969M342 200.969L261 285L267.047 289.031C269.829 290.886 271.5 294.008 271.5 297.352V339.5" stroke="url(#paint0_linear_46_109)" stroke-width="4"/>
<defs>
<linearGradient id="paint0_linear_46_109" x1="255" y1="111" x2="246.75" y2="387" gradientUnits="userSpaceOnUse">
<stop stop-color="#810000"/>
<stop offset="1"/>
</linearGradient>
</defs>
</svg>
